<svg version="1.1" id="Layer_1" xmlns="http://www.w3.org/2000/svg" xmlns:xlink="http://www.w3.org/1999/xlink" x="0px" y="0px"
	 width="100%" viewBox="0 0 633 497" enable-background="new 0 0 633 497" xml:space="preserve">
<path fill="#000000" opacity="1.000000" stroke="none" 
	d="
M376.000000,498.000000 
	C250.694275,498.000000 125.888557,498.000000 1.041418,498.000000 
	C1.041418,332.397614 1.041418,166.795181 1.041418,1.096385 
	C211.889038,1.096385 422.778137,1.096385 633.833618,1.096385 
	C633.833618,166.666534 633.833618,332.333252 633.833618,498.000000 
	C548.128540,498.000000 462.314270,498.000000 376.000000,498.000000 
M423.112549,59.221695 
	C411.103546,59.544655 399.094513,59.867615 386.305939,60.025879 
	C385.538483,60.194057 384.771057,60.362236 383.223785,60.416389 
	C379.847046,61.337193 376.470337,62.257992 372.352814,63.142780 
	C371.229767,63.626293 370.106750,64.109810 368.376617,64.554489 
	C367.683838,64.943939 366.991058,65.333397 365.616974,65.721901 
	C361.299927,68.253922 356.982849,70.785934 351.957764,73.460495 
	C344.637421,78.303329 337.317078,83.146164 329.304260,88.081329 
	C321.810577,93.029953 314.316895,97.978577 306.247986,102.955360 
	C305.839569,103.332520 305.431152,103.709679 304.361053,104.154747 
	C303.692383,104.711090 303.023743,105.267433 301.704529,105.893402 
	C298.139801,108.381073 294.575073,110.868752 290.370087,113.574158 
	C285.169250,116.903999 279.968384,120.233841 274.067169,123.693535 
	C269.661163,126.636681 265.255157,129.579834 260.139801,132.663620 
	C254.554443,136.382202 248.969101,140.100784 243.077667,143.768295 
	C243.077667,143.768295 242.997330,144.068039 242.332397,144.130356 
	C241.662064,144.688705 240.991730,145.247055 239.752533,145.824448 
	C239.187851,146.296158 238.623169,146.767853 237.435364,147.290070 
	C236.811722,147.813385 236.188080,148.336700 235.168793,148.862885 
	C235.168793,148.862885 234.991455,149.216568 234.360626,149.266541 
	C233.725540,149.795914 233.090454,150.325287 232.114014,150.823853 
	C232.114014,150.823853 231.994034,151.144928 231.344696,151.204010 
	C230.689423,151.749451 230.034134,152.294891 229.078278,152.781235 
	C229.078278,152.781235 229.001724,153.077820 228.309708,153.161484 
	C220.398300,158.378723 212.486908,163.595963 204.178116,168.828537 
	C204.178116,168.828537 203.996643,169.182404 203.360947,169.229446 
	C202.723190,169.763611 202.085434,170.297791 200.805649,170.916245 
	C199.226227,172.039505 197.646790,173.162766 195.457504,174.334564 
	C194.849350,174.847565 194.241196,175.360550 193.204605,175.893402 
	C193.204605,175.893402 192.993805,176.266907 192.380936,176.314056 
	C191.767624,176.830017 191.154297,177.345978 190.157272,177.860153 
	C190.157272,177.860153 189.994507,178.207657 189.360947,178.264099 
	C188.720520,178.794479 188.080109,179.324860 187.107620,179.821518 
	C187.107620,179.821518 187.000900,180.137787 186.313766,180.223267 
	C180.728256,183.829559 175.058823,187.314056 169.586609,191.084778 
	C165.912323,193.616592 164.686172,197.339172 166.082703,201.632446 
	C167.391739,205.656693 170.341965,208.118958 174.548950,208.175186 
	C182.678314,208.283875 190.812912,208.001465 199.858719,208.131424 
	C205.238861,207.910507 210.618988,207.689606 216.855911,207.721985 
	C221.286087,207.203247 225.716278,206.684525 229.651825,206.899796 
	C228.190674,208.229263 226.810974,209.663742 225.254929,210.870865 
	C216.343323,217.784149 207.306442,224.538452 198.476425,231.553558 
	C191.161713,237.364822 189.950089,245.099411 194.965546,253.188690 
	C196.595612,254.603210 198.225677,256.017731 200.271286,257.949707 
	C201.515213,258.296143 202.759155,258.642548 204.479034,259.238556 
	C205.002457,259.222931 205.525864,259.207336 206.852875,259.560425 
	C208.897629,259.522949 210.942368,259.485474 213.818100,259.716858 
	C215.549622,259.628754 217.281143,259.540649 219.869080,259.719757 
	C222.251892,259.630920 224.634720,259.542114 227.913574,259.717010 
	C232.613541,259.628876 237.313507,259.540741 242.913940,259.718994 
	C260.647858,259.748138 278.381866,259.811523 296.115692,259.783997 
	C300.968597,259.776459 305.095734,260.628418 305.953278,266.901123 
	C303.404785,271.598969 300.856293,276.296814 297.744019,281.417786 
	C292.837158,289.284119 287.930298,297.150452 282.461578,305.352905 
	C281.253998,307.379730 280.046417,309.406555 278.274475,311.763489 
	C277.897339,312.522583 277.520233,313.281708 276.609589,314.358124 
	C276.022797,315.431000 275.436005,316.503876 274.310822,317.865173 
	C273.958618,318.573456 273.606415,319.281738 272.685059,320.401337 
	C271.613068,322.211121 270.541077,324.020935 268.934845,326.184631 
	C266.094574,330.712646 263.254272,335.240662 259.876740,340.119415 
	C257.447174,344.033661 255.017593,347.947876 252.094589,352.122955 
	C251.682755,352.932404 251.270935,353.741852 250.306610,354.856750 
	C249.942871,355.590851 249.579117,356.324982 248.647934,357.423492 
	C248.239136,358.208221 247.830338,358.992950 246.883743,360.110565 
	C245.133530,362.981506 243.383316,365.852448 241.720688,368.725372 
	C241.720688,368.725372 241.709106,368.638550 241.172806,368.907593 
	C240.833572,369.605225 240.494339,370.302887 239.839325,371.139740 
	C239.839325,371.139740 239.849426,371.484711 239.292755,371.789764 
	C238.928818,372.526306 238.564880,373.262848 237.866150,374.174622 
	C237.866150,374.174622 237.855942,374.552399 237.308655,374.841949 
	C236.953766,375.560638 236.598877,376.279327 235.664444,377.398804 
	C234.289917,379.550751 232.915405,381.702667 231.012939,384.276215 
	C228.413223,388.539032 225.813507,392.801849 222.643463,397.433228 
	C221.038422,400.083527 219.433380,402.733826 217.256180,405.709137 
	C216.875168,406.471924 216.494171,407.234680 215.810562,408.112610 
	C215.810562,408.112610 215.841492,408.434906 215.280334,408.753601 
	C214.907181,409.501831 214.534042,410.250031 213.841461,411.140991 
	C213.841461,411.140991 213.851303,411.490723 213.292465,411.809265 
	C212.919434,412.556274 212.546402,413.303284 211.596375,414.421326 
	C209.340591,418.078674 207.084793,421.735992 204.260513,425.712555 
	C203.903915,426.474518 203.547318,427.236511 202.663528,428.443024 
	C202.484390,429.310852 202.305267,430.178680 201.774307,431.523285 
	C202.034546,432.643738 202.294785,433.764191 202.507065,435.565796 
	C204.209427,439.050293 207.028107,440.581787 211.622192,440.690155 
	C220.697784,440.727020 229.782532,441.024536 238.845642,440.705963 
	C244.558365,440.505188 250.238724,439.382629 256.670654,438.767426 
	C257.113983,438.565002 257.557312,438.362579 258.498627,438.322571 
	C258.963409,438.125427 259.428192,437.928314 260.644836,437.815796 
	C262.766388,436.979340 264.887939,436.142883 267.619415,435.364929 
	C268.314484,434.972412 269.009583,434.579895 270.378632,434.251343 
	C272.587738,433.006226 274.796875,431.761139 277.573883,430.491364 
	C278.153992,430.034119 278.734070,429.576843 279.993317,429.058990 
	C286.652435,424.668854 293.311554,420.278687 300.658966,415.805115 
	C308.992584,410.325775 317.326202,404.846466 326.318573,399.272308 
	C331.532745,395.803833 336.746918,392.335327 342.567749,388.828094 
	C343.170013,388.317963 343.772278,387.807861 344.384766,387.271240 
	C344.384766,387.271240 344.401398,387.295807 345.083221,387.192627 
	C351.467468,382.987488 357.851715,378.782379 364.947144,374.433167 
	C372.014618,369.778595 379.082123,365.124023 386.863068,360.326538 
	C394.585602,355.242279 402.308167,350.157990 410.731720,344.979034 
	C417.814636,340.305023 424.897552,335.631042 432.667358,330.865387 
	C436.775238,328.129761 440.883118,325.394135 445.576385,322.608459 
	C446.152039,322.109436 446.727661,321.610382 447.736450,321.067047 
	C447.736450,321.067047 447.987061,320.710999 448.657837,320.618164 
	C454.374115,316.947968 460.175568,313.402130 465.776825,309.564087 
	C469.552307,306.977051 471.108673,303.175537 469.703735,298.684021 
	C468.312622,294.236816 465.083954,291.917969 460.365417,291.955231 
	C455.239227,291.995697 450.113770,292.136536 444.076904,292.006317 
	C437.383270,292.127228 430.689636,292.248169 423.103333,292.172668 
	C420.397339,292.440765 417.691376,292.708862 414.522919,292.762360 
	C414.049988,292.903748 413.577087,293.045135 412.215515,293.042999 
	C410.770813,293.329041 409.326141,293.615082 407.596649,292.951813 
	C407.780396,292.319824 407.964172,291.687866 408.803986,290.903290 
	C418.609375,283.462250 428.482880,276.108551 438.187103,268.537872 
	C442.155151,265.442261 444.646240,261.401550 443.809601,255.281662 
	C442.847382,252.862961 441.885132,250.444260 440.791382,247.372696 
	C438.879456,245.865067 436.967529,244.357437 434.538513,242.301682 
	C433.082825,242.011948 431.627136,241.722229 429.383911,241.187057 
	C425.922211,241.238022 422.460480,241.288986 418.096283,241.103180 
	C413.732758,241.163788 409.369263,241.224411 404.100830,241.037064 
	C399.370117,241.088669 394.639374,241.140259 389.159637,240.922852 
	C383.109711,240.935455 377.059753,240.948059 370.172211,240.556168 
	C367.095825,240.588364 364.019409,240.620560 360.157959,240.390030 
	C353.253235,240.357803 346.338593,240.086487 339.446991,240.371674 
	C334.265594,240.586075 330.823334,238.950470 329.783478,233.005905 
	C330.791321,230.936127 331.609253,228.745712 332.835876,226.814926 
	C348.025421,202.904770 363.274506,179.032440 379.052582,154.809418 
	C383.387817,147.878860 387.723053,140.948303 392.639954,133.690155 
	C396.096497,128.127670 399.553040,122.565178 403.595795,116.635834 
	C404.541260,114.805695 405.486725,112.975563 406.991394,110.779617 
	C408.686859,107.905754 410.382324,105.031891 412.594849,101.751175 
	C414.357605,99.166687 416.120361,96.582199 418.176941,93.865761 
	C418.176941,93.865761 418.166748,93.543831 418.717010,93.222488 
	C419.082397,92.481194 419.447754,91.739899 420.137207,90.812035 
	C420.137207,90.812035 420.157043,90.438644 420.698639,90.139145 
	C421.053406,89.422035 421.408173,88.704926 422.101562,87.776924 
	C422.101562,87.776924 422.135895,87.379478 422.664459,87.095535 
	C423.006012,86.396599 423.347534,85.697662 424.068237,84.646736 
	C424.063446,84.474350 424.058685,84.301971 424.433716,83.719688 
	C424.739838,82.890450 425.045959,82.061203 426.067657,80.903053 
	C426.498688,79.978981 426.929749,79.054901 427.941864,77.960358 
	C428.284088,77.273857 428.626343,76.587357 429.364502,75.481789 
	C429.826569,74.683548 430.288635,73.885307 431.261169,72.908875 
	C431.561859,72.471764 431.862518,72.034653 432.752350,71.121208 
	C434.944855,64.124344 431.869690,59.990173 423.112549,59.221695 
z"/>
<path fill="#5E82F1" opacity="1.000000" stroke="none" 
	d="
M378.508270,155.150375 
	C363.274506,179.032440 348.025421,202.904770 332.835876,226.814926 
	C331.609253,228.745712 330.791321,230.936127 329.373077,233.501175 
	C327.821930,235.397873 326.538910,236.707367 325.564209,238.216064 
	C320.436279,246.153259 315.440765,254.176468 310.263672,262.081024 
	C309.217590,263.678284 307.587006,264.892731 306.225922,266.283691 
	C305.095734,260.628418 300.968597,259.776459 296.115692,259.783997 
	C278.381866,259.811523 260.647858,259.748138 242.498291,259.260101 
	C243.138062,257.368011 243.931046,255.593323 245.287048,254.551208 
	C286.435852,222.927048 327.614532,191.341400 368.892517,159.886261 
	C371.681305,157.761124 375.284088,156.704147 378.508270,155.150375 
z"/>
<path fill="#5E85F1" opacity="1.000000" stroke="none" 
	d="
M204.829010,425.393341 
	C207.084793,421.735992 209.340591,418.078674 212.179352,414.089935 
	C213.125320,413.002594 213.488312,412.246674 213.851303,411.490723 
	C213.851303,411.490723 213.841461,411.140991 214.300110,410.929321 
	C215.119659,409.956726 215.480576,409.195831 215.841492,408.434906 
	C215.841492,408.434906 215.810562,408.112610 216.268082,407.913696 
	C217.093185,406.937866 217.460770,406.161011 217.828339,405.384125 
	C219.433380,402.733826 221.038422,400.083527 223.288239,397.210449 
	C226.366913,395.933075 228.975906,395.161591 231.208084,393.780884 
	C258.816528,376.703522 286.344452,359.496002 313.961456,342.432617 
	C318.876770,339.395630 324.103088,336.862000 329.075684,334.418396 
	C326.944885,336.843597 324.966919,338.989563 322.893646,341.039154 
	C319.550476,344.344147 316.144470,347.585602 312.445709,350.955780 
	C304.700958,357.680420 297.275482,364.303162 289.559570,371.081787 
	C281.829926,377.819580 274.390747,384.401489 266.664520,391.147522 
	C259.852570,397.178070 253.327682,403.044525 246.493652,409.018707 
	C234.409729,419.531006 222.634949,429.935638 210.860168,440.340271 
	C207.028107,440.581787 204.209427,439.050293 202.624268,434.827911 
	C202.536346,433.075531 202.331223,432.061005 202.126129,431.046509 
	C202.305267,430.178680 202.484390,429.310852 203.224182,428.074402 
	C204.132889,426.934967 204.480942,426.164154 204.829010,425.393341 
z"/>
<path fill="#6178F3" opacity="1.000000" stroke="none" 
	d="
M231.540878,383.854614 
	C232.915405,381.702667 234.289917,379.550751 236.239319,377.063354 
	C237.161438,376.002777 237.508698,375.277588 237.855957,374.552399 
	C237.855942,374.552399 237.866150,374.174622 238.326553,373.949097 
	C239.141113,372.977264 239.495270,372.230988 239.849426,371.484711 
	C239.849426,371.484711 239.839325,371.139740 240.284393,370.950439 
	C241.056015,370.053619 241.382568,369.346100 241.709106,368.638550 
	C241.709106,368.638550 241.720688,368.725372 242.074493,368.766724 
	C245.176620,367.722717 248.159927,367.018555 250.636337,365.492035 
	C271.282227,352.765503 291.845215,339.904266 312.413177,327.051575 
	C350.179657,303.451843 387.910889,279.795654 425.717285,256.260162 
	C430.601685,253.219498 435.845551,250.756256 440.922913,248.025543 
	C441.885132,250.444260 442.847382,252.862961 443.348236,255.647247 
	C441.186462,256.611115 439.307526,256.921814 437.812073,257.850250 
	C409.385223,275.498230 381.009094,293.227844 352.611237,310.922577 
	C314.606232,334.603516 276.608276,358.295898 238.534302,381.865448 
	C236.552277,383.092438 233.887695,383.216888 231.540878,383.854614 
z"/>
<path fill="#5E7FF0" opacity="1.000000" stroke="none" 
	d="
M231.276917,384.065430 
	C233.887695,383.216888 236.552277,383.092438 238.534302,381.865448 
	C276.608276,358.295898 314.606232,334.603516 352.611237,310.922577 
	C381.009094,293.227844 409.385223,275.498230 437.812073,257.850250 
	C439.307526,256.921814 441.186462,256.611115 443.248535,256.002777 
	C444.646240,261.401550 442.155151,265.442261 438.187103,268.537872 
	C428.482880,276.108551 418.609375,283.462250 408.140350,291.031921 
	C406.611755,292.095764 405.746796,293.031006 404.524475,293.998108 
	C402.773224,294.370117 401.379333,294.710236 399.609131,295.119019 
	C390.824036,298.135498 382.415314,301.083313 373.654480,304.101379 
	C365.871002,308.452454 358.439575,312.733276 350.699341,317.084229 
	C349.600647,317.792480 348.810822,318.430573 347.712555,319.117523 
	C346.623260,319.786377 345.842346,320.406342 344.769958,321.191864 
	C339.720276,325.592407 334.962097,329.827393 329.949341,334.069794 
	C329.525116,334.083466 329.355438,334.089691 329.185791,334.095917 
	C324.103088,336.862000 318.876770,339.395630 313.961456,342.432617 
	C286.344452,359.496002 258.816528,376.703522 231.208084,393.780884 
	C228.975906,395.161591 226.366913,395.933075 223.573410,397.026184 
	C225.813507,392.801849 228.413223,388.539032 231.276917,384.065430 
z"/>
<path fill="#6275F2" opacity="1.000000" stroke="none" 
	d="
M378.780426,154.979889 
	C375.284088,156.704147 371.681305,157.761124 368.892517,159.886261 
	C327.614532,191.341400 286.435852,222.927048 245.287048,254.551208 
	C243.931046,255.593323 243.138062,257.368011 242.048050,259.126892 
	C237.313507,259.540741 232.613541,259.628876 227.499786,259.259125 
	C227.924652,257.621765 228.539169,256.151855 229.635284,255.306015 
	C248.468918,240.773041 267.371857,226.329971 286.239166,211.840515 
	C304.315094,197.958847 322.333466,184.002075 340.440735,170.161530 
	C355.510071,158.643066 370.629120,147.188034 385.854248,135.877319 
	C387.483551,134.666916 389.969635,134.609818 392.058258,134.017731 
	C387.723053,140.948303 383.387817,147.878860 378.780426,154.979889 
z"/>
<path fill="#6B56F1" opacity="1.000000" stroke="none" 
	d="
M424.053894,84.129578 
	C424.058685,84.301971 424.063446,84.474350 423.602386,84.954605 
	C422.802979,85.968147 422.469421,86.673813 422.135895,87.379478 
	C422.135895,87.379478 422.101562,87.776924 421.639038,87.879463 
	C420.785614,87.989265 420.394714,87.996521 419.642273,88.026894 
	C414.236023,91.491821 409.016937,94.705658 404.173828,98.410995 
	C359.278198,132.759659 314.459320,167.208603 269.592560,201.595001 
	C247.818771,218.282684 225.960236,234.860046 204.241272,251.618515 
	C202.387695,253.048752 201.299484,255.470886 199.855728,257.432251 
	C198.225677,256.017731 196.595612,254.603210 194.904648,252.526672 
	C195.548813,250.361008 195.908524,248.494705 197.029205,247.427536 
	C199.538071,245.038544 202.404434,243.019684 205.162628,240.898743 
	C220.534439,229.078522 235.961838,217.329391 251.212402,205.354935 
	C252.436417,204.393860 252.468613,201.914902 253.196747,199.907959 
	C253.952011,199.283096 254.565186,198.891571 255.555649,198.429688 
	C260.667053,196.071030 265.401154,193.782730 270.499268,191.422333 
	C275.598602,188.289444 280.333893,185.228638 285.400024,182.067123 
	C290.484741,177.968811 295.238586,173.971207 300.292725,169.828491 
	C304.415588,166.522324 308.238159,163.361237 312.174011,160.476685 
	C313.416412,160.754761 314.796143,161.176117 315.627960,160.679581 
	C318.183777,159.153976 320.576019,157.337555 322.950287,155.527206 
	C355.399017,130.785614 387.814667,106.000565 420.318970,81.332298 
	C422.322296,79.811935 424.997955,79.177475 427.360779,78.130829 
	C426.929749,79.054901 426.498688,79.978981 425.530823,81.251320 
	C424.680634,82.442917 424.367249,83.286247 424.053894,84.129578 
z"/>
<path fill="#695BF1" opacity="1.000000" stroke="none" 
	d="
M269.469086,325.830719 
	C270.541077,324.020935 271.613068,322.211121 273.251831,320.063171 
	C274.162140,319.008942 274.505676,318.292816 274.849213,317.576721 
	C275.436005,316.503876 276.022797,315.431000 277.177368,314.053619 
	C278.109711,312.977203 278.474243,312.205292 278.838806,311.433380 
	C280.046417,309.406555 281.253998,307.379730 283.055847,305.322601 
	C286.208282,304.451569 289.056183,304.078430 291.280823,302.699615 
	C321.985870,283.668457 352.612976,264.511444 383.215729,245.316025 
	C384.372528,244.590439 385.090240,243.164886 386.354248,242.046722 
	C387.766846,241.749222 388.837769,241.470551 389.908661,241.191864 
	C394.639374,241.140259 399.370117,241.088669 404.523407,241.503571 
	C403.672485,243.400696 402.646790,245.225693 401.089325,246.204407 
	C359.779755,272.163177 318.433960,298.064667 277.006134,323.834045 
	C274.896179,325.146484 271.999481,325.194183 269.469086,325.830719 
z"/>
<path fill="#60ADD9" opacity="1.000000" stroke="none" 
	d="
M351.008179,317.014099 
	C358.439575,312.733276 365.871002,308.452454 373.854797,304.384003 
	C375.732941,306.924805 377.475067,309.120117 378.273346,311.617157 
	C379.163269,314.400909 379.137085,317.468353 379.610474,320.395996 
	C381.770844,333.756958 383.966583,347.112183 386.149597,360.469482 
	C379.082123,365.124023 372.014618,369.778595 364.489746,374.089966 
	C363.066467,370.236084 361.770721,366.778748 361.193542,363.205322 
	C359.036865,349.852631 357.255463,336.437927 354.966766,323.109406 
	C354.590057,320.915741 352.374115,319.037903 351.008179,317.014099 
z"/>
<path fill="#60A3DF" opacity="1.000000" stroke="none" 
	d="
M386.506348,360.398010 
	C383.966583,347.112183 381.770844,333.756958 379.610474,320.395996 
	C379.137085,317.468353 379.163269,314.400909 378.273346,311.617157 
	C377.475067,309.120117 375.732941,306.924805 374.206879,304.313751 
	C382.415314,301.083313 390.824036,298.135498 399.697357,295.466309 
	C401.775269,301.918732 403.726044,308.027863 404.925446,314.281097 
	C406.884766,324.495911 408.354462,334.804596 410.030701,345.073700 
	C402.308167,350.157990 394.585602,355.242279 386.506348,360.398010 
z"/>
<path fill="#695BF1" opacity="1.000000" stroke="none" 
	d="
M200.063507,257.690979 
	C201.299484,255.470886 202.387695,253.048752 204.241272,251.618515 
	C225.960236,234.860046 247.818771,218.282684 269.592560,201.595001 
	C314.459320,167.208603 359.278198,132.759659 404.173828,98.410995 
	C409.016937,94.705658 414.236023,91.491821 419.654541,88.433197 
	C420.071289,89.357140 420.114166,89.897896 420.157043,90.438644 
	C420.157043,90.438644 420.137207,90.812035 419.677795,91.042297 
	C418.867859,92.029655 418.517303,92.786743 418.166748,93.543831 
	C418.166748,93.543831 418.176941,93.865761 417.717529,94.038467 
	C415.176819,96.471832 413.095490,98.732483 410.650970,101.018875 
	C408.821106,101.769386 407.191132,102.279640 405.913177,103.252357 
	C394.147614,112.207878 382.422150,121.216553 370.725800,130.262482 
	C355.757263,141.839081 340.886780,153.543259 325.864014,165.048782 
	C307.418274,179.175812 288.855011,193.149384 270.349640,207.198608 
	C251.567307,221.458160 232.752930,235.676193 214.057816,250.049301 
	C211.085541,252.334412 208.666702,255.339401 205.714737,258.068604 
	C204.959351,258.413422 204.481216,258.701202 204.003082,258.988983 
	C202.759155,258.642548 201.515213,258.296143 200.063507,257.690979 
z"/>
<path fill="#6B4FEE" opacity="1.000000" stroke="none" 
	d="
M386.012573,242.065536 
	C385.090240,243.164886 384.372528,244.590439 383.215729,245.316025 
	C352.612976,264.511444 321.985870,283.668457 291.280823,302.699615 
	C289.056183,304.078430 286.208282,304.451569 283.336792,305.154541 
	C287.930298,297.150452 292.837158,289.284119 298.394043,281.202576 
	C300.622162,280.524902 302.396729,280.382294 303.748627,279.551666 
	C321.863861,268.421478 339.958069,257.255310 357.921692,245.883530 
	C359.428680,244.929550 359.958984,242.432785 360.943024,240.652740 
	C364.019409,240.620560 367.095825,240.588364 370.930908,240.988571 
	C376.463959,241.635834 381.238251,241.850693 386.012573,242.065536 
z"/>
<path fill="#646CF1" opacity="1.000000" stroke="none" 
	d="
M392.349121,133.853943 
	C389.969635,134.609818 387.483551,134.666916 385.854248,135.877319 
	C370.629120,147.188034 355.510071,158.643066 340.440735,170.161530 
	C322.333466,184.002075 304.315094,197.958847 286.239166,211.840515 
	C267.371857,226.329971 248.468918,240.773041 229.635284,255.306015 
	C228.539169,256.151855 227.924652,257.621765 227.051773,259.127258 
	C224.634720,259.542114 222.251892,259.630920 219.447601,259.243530 
	C220.467361,256.656616 221.488281,254.001419 223.412323,252.516190 
	C257.193024,226.439743 291.075684,200.495224 324.955200,174.546921 
	C339.463257,163.435211 353.896362,152.220200 368.584656,141.351044 
	C379.880249,132.992477 391.521851,125.101578 403.009583,117.002701 
	C399.553040,122.565178 396.096497,128.127670 392.349121,133.853943 
z"/>
<path fill="#6764F3" opacity="1.000000" stroke="none" 
	d="
M269.201965,326.007690 
	C271.999481,325.194183 274.896179,325.146484 277.006134,323.834045 
	C318.433960,298.064667 359.779755,272.163177 401.089325,246.204407 
	C402.646790,245.225693 403.672485,243.400696 404.975861,241.627533 
	C409.369263,241.224411 413.732758,241.163788 418.515747,241.560394 
	C417.653564,243.440598 416.602753,245.220413 415.050293,246.224838 
	C408.345703,250.562714 401.473511,254.640396 394.699524,258.872406 
	C351.937317,285.587921 309.199341,312.342346 266.372192,338.953308 
	C264.817474,339.919312 262.419159,339.527588 260.413971,339.768646 
	C263.254272,335.240662 266.094574,330.712646 269.201965,326.007690 
z"/>
<path fill="#62C8C9" opacity="1.000000" stroke="none" 
	d="
M289.850037,370.925934 
	C297.275482,364.303162 304.700958,357.680420 312.818726,351.072144 
	C314.624634,352.609497 316.446625,354.009918 316.734680,355.675568 
	C318.370483,365.134705 319.379333,374.705780 321.136841,384.139008 
	C322.101349,389.316223 324.117706,394.297516 325.659821,399.367126 
	C317.326202,404.846466 308.992584,410.325775 300.319275,415.408691 
	C297.947510,401.604431 296.019745,388.178772 293.735870,374.813995 
	C293.483978,373.339691 291.194519,372.213531 289.850037,370.925934 
z"/>
<path fill="#61B6D3" opacity="1.000000" stroke="none" 
	d="
M350.699341,317.084229 
	C352.374115,319.037903 354.590057,320.915741 354.966766,323.109406 
	C357.255463,336.437927 359.036865,349.852631 361.193542,363.205322 
	C361.770721,366.778748 363.066467,370.236084 364.134155,374.161987 
	C357.851715,378.782379 351.467468,382.987488 344.656433,386.807037 
	C341.722137,370.892639 339.169739,355.370880 336.738708,339.830109 
	C336.130768,335.943848 334.973145,333.055847 330.203888,334.062347 
	C334.962097,329.827393 339.720276,325.592407 345.093018,321.160339 
	C346.478699,320.331696 347.249817,319.700165 348.020966,319.068634 
	C348.810822,318.430573 349.600647,317.792480 350.699341,317.084229 
z"/>
<path fill="#61AFD8" opacity="1.000000" stroke="none" 
	d="
M306.823242,102.927200 
	C314.316895,97.978577 321.810577,93.029953 329.886597,88.305298 
	C331.217651,89.984245 332.403168,91.369843 332.646973,92.904999 
	C334.883118,106.984886 336.955841,121.090714 338.894775,135.455963 
	C331.472656,142.138351 324.231934,148.553741 316.991760,154.509094 
	C314.971252,138.144104 313.034454,122.227158 310.772797,106.356499 
	C310.586914,105.052277 308.191833,104.062881 306.823242,102.927200 
z"/>
<path fill="#62BECF" opacity="1.000000" stroke="none" 
	d="
M329.949341,334.069794 
	C334.973145,333.055847 336.130768,335.943848 336.738708,339.830109 
	C339.169739,355.370880 341.722137,370.892639 344.315491,386.858643 
	C344.401398,387.295807 344.384766,387.271240 344.060974,387.286804 
	C343.145172,387.823853 342.553131,388.345337 341.961121,388.866821 
	C336.746918,392.335327 331.532745,395.803833 325.989197,399.319702 
	C324.117706,394.297516 322.101349,389.316223 321.136841,384.139008 
	C319.379333,374.705780 318.370483,365.134705 316.734680,355.675568 
	C316.446625,354.009918 314.624634,352.609497 313.138031,350.970276 
	C316.144470,347.585602 319.550476,344.344147 322.893646,341.039154 
	C324.966919,338.989563 326.944885,336.843597 329.075684,334.418396 
	C329.355438,334.089691 329.525116,334.083466 329.949341,334.069794 
z"/>
<path fill="#6764F3" opacity="1.000000" stroke="none" 
	d="
M205.991989,258.011566 
	C208.666702,255.339401 211.085541,252.334412 214.057816,250.049301 
	C232.752930,235.676193 251.567307,221.458160 270.349640,207.198608 
	C288.855011,193.149384 307.418274,179.175812 325.864014,165.048782 
	C340.886780,153.543259 355.757263,141.839081 370.725800,130.262482 
	C382.422150,121.216553 394.147614,112.207878 405.913177,103.252357 
	C407.191132,102.279640 408.821106,101.769386 410.846954,101.194977 
	C411.630005,101.616226 411.853882,101.887131 412.077759,102.158035 
	C410.382324,105.031891 408.686859,107.905754 406.321472,110.953613 
	C403.723663,112.015381 401.551636,112.583252 399.905060,113.839729 
	C380.603363,128.568909 361.402008,143.429474 342.132507,158.201019 
	C300.557251,190.071655 258.943298,221.891907 217.415833,253.824646 
	C215.582352,255.234512 214.447433,257.552826 212.987122,259.447998 
	C210.942368,259.485474 208.897629,259.522949 206.447769,259.179016 
	C206.020630,258.535950 206.003738,258.273926 205.991989,258.011566 
z"/>
<path fill="#63D2C3" opacity="1.000000" stroke="none" 
	d="
M289.559570,371.081787 
	C291.194519,372.213531 293.483978,373.339691 293.735870,374.813995 
	C296.019745,388.178772 297.947510,401.604431 299.975098,415.450378 
	C293.311554,420.278687 286.652435,424.668854 279.269592,429.068848 
	C278.032806,429.062683 277.519806,429.046600 277.005432,428.576904 
	C275.589264,417.131805 274.235138,406.132019 272.721497,395.154175 
	C272.284851,391.987335 270.035156,390.771881 266.951599,390.983429 
	C274.390747,384.401489 281.829926,377.819580 289.559570,371.081787 
z"/>
<path fill="#60A5DD" opacity="1.000000" stroke="none" 
	d="
M339.076233,135.188995 
	C336.955841,121.090714 334.883118,106.984886 332.646973,92.904999 
	C332.403168,91.369843 331.217651,89.984245 330.232849,88.259140 
	C337.317078,83.146164 344.637421,78.303329 352.487274,73.778740 
	C356.567657,88.273727 359.795898,102.496277 359.002716,117.553940 
	C352.264526,123.622002 345.670380,129.405502 339.076233,135.188995 
z"/>
<path fill="#6569F1" opacity="1.000000" stroke="none" 
	d="
M260.145355,339.944031 
	C262.419159,339.527588 264.817474,339.919312 266.372192,338.953308 
	C309.199341,312.342346 351.937317,285.587921 394.699524,258.872406 
	C401.473511,254.640396 408.345703,250.562714 415.050293,246.224838 
	C416.602753,245.220413 417.653564,243.440598 418.966980,241.678772 
	C422.460480,241.288986 425.922211,241.238022 429.673859,241.671722 
	C428.384247,243.563980 426.968445,245.233124 425.200592,246.339996 
	C398.124390,263.292633 371.002655,280.172577 343.890625,297.068054 
	C315.648834,314.667572 287.423920,332.294434 259.123474,349.799103 
	C257.240143,350.963989 254.779907,351.196136 252.588013,351.862122 
	C255.017593,347.947876 257.447174,344.033661 260.145355,339.944031 
z"/>
<path fill="#61B6D3" opacity="1.000000" stroke="none" 
	d="
M306.535614,102.941284 
	C308.191833,104.062881 310.586914,105.052277 310.772797,106.356499 
	C313.034454,122.227158 314.971252,138.144104 316.822571,154.790985 
	C315.122101,157.088684 313.591431,158.644424 312.060730,160.200165 
	C308.238159,163.361237 304.415588,166.522324 300.292969,169.388123 
	C298.469482,157.957733 297.107513,146.797272 295.366119,135.696320 
	C294.191162,128.206253 292.481049,120.800110 291.010345,113.356422 
	C294.575073,110.868752 298.139801,108.381073 302.376404,105.830414 
	C303.706421,105.207230 304.364563,104.647026 305.022736,104.086838 
	C305.431152,103.709679 305.839569,103.332520 306.535614,102.941284 
z"/>
<path fill="#63D8BC" opacity="1.000000" stroke="none" 
	d="
M204.575516,168.813217 
	C212.486908,163.595963 220.398300,158.378723 228.688568,153.526947 
	C229.791946,158.281204 230.543106,162.665802 231.235931,167.059570 
	C233.187881,179.438736 235.115860,191.821671 236.765656,204.376556 
	C234.367508,205.088577 232.256973,205.627182 230.146454,206.165787 
	C225.716278,206.684525 221.286087,207.203247 216.411713,207.210266 
	C214.001541,195.453674 211.907364,184.228851 210.143951,172.952286 
	C209.578857,169.338730 208.077957,167.984848 204.575516,168.813217 
z"/>
<path fill="#63D2C3" opacity="1.000000" stroke="none" 
	d="
M237.053299,204.203125 
	C235.115860,191.821671 233.187881,179.438736 231.235931,167.059570 
	C230.543106,162.665802 229.791946,158.281204 229.034576,153.485123 
	C229.001724,153.077820 229.078278,152.781235 229.567322,152.780640 
	C230.702255,152.235016 231.348145,151.689972 231.994034,151.144928 
	C231.994034,151.144928 232.114014,150.823853 232.611313,150.807816 
	C233.736221,150.266708 234.363846,149.741638 234.991455,149.216568 
	C234.991455,149.216568 235.168793,148.862885 235.684753,148.827499 
	C236.819992,148.274597 237.439240,147.757080 238.058502,147.239563 
	C238.623169,146.767853 239.187851,146.296158 240.386658,145.792603 
	C241.679626,145.196503 242.338486,144.632278 242.997330,144.068039 
	C242.997330,144.068039 243.077667,143.768295 243.646851,143.857452 
	C245.414993,145.126160 247.473877,146.171295 247.682449,147.505646 
	C250.335632,164.479630 252.723190,181.495117 255.178345,198.500046 
	C254.565186,198.891571 253.952011,199.283096 252.826950,199.940521 
	C247.227798,201.538666 242.140549,202.870895 237.053299,204.203125 
z"/>
<path fill="#646FF3" opacity="1.000000" stroke="none" 
	d="
M252.341309,351.992523 
	C254.779907,351.196136 257.240143,350.963989 259.123474,349.799103 
	C287.423920,332.294434 315.648834,314.667572 343.890625,297.068054 
	C371.002655,280.172577 398.124390,263.292633 425.200592,246.339996 
	C426.968445,245.233124 428.384247,243.563980 430.067627,241.794434 
	C431.627136,241.722229 433.082825,242.011948 434.762390,242.946655 
	C433.663727,245.171173 432.629120,247.201797 430.973083,248.259018 
	C417.528442,256.842102 403.973969,265.253418 390.440552,273.697174 
	C346.457855,301.138977 302.499176,328.619568 258.423676,355.911591 
	C255.195908,357.910248 251.109039,358.521484 247.421555,359.777710 
	C247.830338,358.992950 248.239136,358.208221 249.217407,357.094421 
	C250.144302,356.027344 250.501694,355.289337 250.859100,354.551300 
	C251.270935,353.741852 251.682755,352.932404 252.341309,351.992523 
z"/>
<path fill="#5F98E4" opacity="1.000000" stroke="none" 
	d="
M410.381226,345.026367 
	C408.354462,334.804596 406.884766,324.495911 404.925446,314.281097 
	C403.726044,308.027863 401.775269,301.918732 400.073700,295.397644 
	C401.379333,294.710236 402.773224,294.370117 404.724670,294.171570 
	C406.148682,294.175781 407.015045,294.038452 407.881439,293.901123 
	C409.326141,293.615082 410.770813,293.329041 412.800323,293.243958 
	C413.918549,293.288910 414.451965,293.132935 414.985382,292.976959 
	C417.691376,292.708862 420.397339,292.440765 423.553986,292.672791 
	C424.994751,299.561584 425.717773,306.006561 427.050262,312.322998 
	C428.374786,318.601593 430.311981,324.750946 431.980469,330.957031 
	C424.897552,335.631042 417.814636,340.305023 410.381226,345.026367 
z"/>
<path fill="#62C5CB" opacity="1.000000" stroke="none" 
	d="
M285.069183,182.167816 
	C280.333893,185.228638 275.598602,188.289444 270.470673,190.924744 
	C267.001740,171.173828 263.925446,151.848404 260.849121,132.522980 
	C265.255157,129.579834 269.661163,126.636681 274.652161,123.936790 
	C276.175507,126.070938 277.540680,127.870750 277.967438,129.870804 
	C279.004852,134.732407 279.718964,139.672394 280.361206,144.607086 
	C281.989685,157.119629 283.507233,169.646622 285.069183,182.167816 
z"/>
<path fill="#6D41EC" opacity="1.000000" stroke="none" 
	d="
M360.550476,240.521393 
	C359.958984,242.432785 359.428680,244.929550 357.921692,245.883530 
	C339.958069,257.255310 321.863861,268.421478 303.748627,279.551666 
	C302.396729,280.382294 300.622162,280.524902 298.675934,280.991028 
	C300.856293,276.296814 303.404785,271.598969 306.089600,266.592407 
	C307.587006,264.892731 309.217590,263.678284 310.263672,262.081024 
	C315.440765,254.176468 320.436279,246.153259 325.564209,238.216064 
	C326.538910,236.707367 327.821930,235.397873 329.262421,233.850983 
	C330.823334,238.950470 334.265594,240.586075 339.446991,240.371674 
	C346.338593,240.086487 353.253235,240.357803 360.550476,240.521393 
z"/>
<path fill="#62BECF" opacity="1.000000" stroke="none" 
	d="
M285.400024,182.067108 
	C283.507233,169.646622 281.989685,157.119629 280.361206,144.607086 
	C279.718964,139.672394 279.004852,134.732407 277.967438,129.870804 
	C277.540680,127.870750 276.175507,126.070938 275.002380,123.871872 
	C279.968384,120.233841 285.169250,116.903999 290.690216,113.465286 
	C292.481049,120.800110 294.191162,128.206253 295.366119,135.696320 
	C297.107513,146.797272 298.469482,157.957733 299.992676,169.533234 
	C295.238586,173.971207 290.484741,177.968811 285.400024,182.067108 
z"/>
<path fill="#5F9BE3" opacity="1.000000" stroke="none" 
	d="
M359.146790,117.269363 
	C359.795898,102.496277 356.567657,88.273727 352.841309,73.707474 
	C356.982849,70.785934 361.299927,68.253922 366.274902,65.747597 
	C367.616425,65.379974 368.300079,64.986649 368.983704,64.593323 
	C370.106750,64.109810 371.229767,63.626293 372.935730,63.300106 
	C374.352386,63.351868 375.186066,63.246304 376.016052,63.566795 
	C376.167145,65.633957 376.297516,67.277817 376.480865,68.915741 
	C377.635071,79.226501 378.801056,89.535934 379.748810,100.106522 
	C373.690613,105.580360 367.846771,110.793480 361.716309,116.132523 
	C360.668671,116.595413 359.907745,116.932388 359.146790,117.269363 
z"/>
<path fill="#62CBC7" opacity="1.000000" stroke="none" 
	d="
M260.494446,132.593292 
	C263.925446,151.848404 267.001740,171.173828 270.106628,190.996841 
	C265.401154,193.782730 260.667053,196.071030 255.555649,198.429688 
	C252.723190,181.495117 250.335632,164.479630 247.682449,147.505646 
	C247.473877,146.171295 245.414993,145.126160 243.799896,143.882996 
	C248.969101,140.100784 254.554443,136.382202 260.494446,132.593292 
z"/>
<path fill="#6271F0" opacity="1.000000" stroke="none" 
	d="
M247.152649,359.944153 
	C251.109039,358.521484 255.195908,357.910248 258.423676,355.911591 
	C302.499176,328.619568 346.457855,301.138977 390.440552,273.697174 
	C403.973969,265.253418 417.528442,256.842102 430.973083,248.259018 
	C432.629120,247.201797 433.663727,245.171173 435.020935,243.220718 
	C436.967529,244.357437 438.879456,245.865067 440.857147,247.699127 
	C435.845551,250.756256 430.601685,253.219498 425.717285,256.260162 
	C387.910889,279.795654 350.179657,303.451843 312.413177,327.051575 
	C291.845215,339.904266 271.282227,352.765503 250.636337,365.492035 
	C248.159927,367.018555 245.176620,367.722717 242.030701,368.765747 
	C243.383316,365.852448 245.133530,362.981506 247.152649,359.944153 
z"/>
<path fill="#64DBBD" opacity="1.000000" stroke="none" 
	d="
M266.664520,391.147522 
	C270.035156,390.771881 272.284851,391.987335 272.721497,395.154175 
	C274.235138,406.132019 275.589264,417.131805 277.007050,428.823975 
	C277.013672,429.855164 277.012329,430.185608 277.006012,430.516052 
	C274.796875,431.761139 272.587738,433.006226 269.729004,434.221954 
	C268.389404,434.563873 267.699463,434.935181 267.009521,435.306458 
	C264.887939,436.142883 262.766388,436.979340 260.107727,437.666473 
	C259.047241,437.731476 258.523926,437.945801 258.000610,438.160156 
	C257.557312,438.362579 257.113983,438.565002 256.314880,438.308136 
	C254.638321,429.564056 253.304184,421.281342 252.003723,412.993378 
	C251.531265,409.982330 249.676239,408.819458 246.802811,408.911011 
	C253.327682,403.044525 259.852570,397.178070 266.664520,391.147522 
z"/>
<path fill="#64E3B8" opacity="1.000000" stroke="none" 
	d="
M246.493652,409.018707 
	C249.676239,408.819458 251.531265,409.982330 252.003723,412.993378 
	C253.304184,421.281342 254.638321,429.564056 255.946365,438.261200 
	C250.238724,439.382629 244.558365,440.505188 238.845642,440.705963 
	C229.782532,441.024536 220.697784,440.727020 211.241180,440.515198 
	C222.634949,429.935638 234.409729,419.531006 246.493652,409.018707 
z"/>
<path fill="#64E3B8" opacity="1.000000" stroke="none" 
	d="
M204.376816,168.820877 
	C208.077957,167.984848 209.578857,169.338730 210.143951,172.952286 
	C211.907364,184.228851 214.001541,195.453674 215.983307,207.083633 
	C210.618988,207.689606 205.238861,207.910507 199.077225,207.815170 
	C193.009140,207.732849 191.510208,204.565643 190.831879,199.943604 
	C189.856491,193.297409 188.305939,186.735611 187.000900,180.137787 
	C187.000900,180.137787 187.107620,179.821518 187.602325,179.806320 
	C188.729538,179.263306 189.362030,178.735489 189.994507,178.207657 
	C189.994507,178.207657 190.157272,177.860153 190.664124,177.828888 
	C191.778580,177.287369 192.386200,176.777145 192.993805,176.266907 
	C192.993805,176.266907 193.204605,175.893402 193.727951,175.847046 
	C194.856659,175.295822 195.462021,174.790924 196.067368,174.286026 
	C197.646790,173.162766 199.226227,172.039505 201.457886,170.853119 
	C202.738953,170.254135 203.367798,169.718262 203.996643,169.182404 
	C203.996643,169.182404 204.178116,168.828537 204.376816,168.820877 
z"/>
<path fill="#6C47EB" opacity="1.000000" stroke="none" 
	d="
M236.765656,204.376556 
	C242.140549,202.870895 247.227798,201.538666 252.684845,200.173874 
	C252.468613,201.914902 252.436417,204.393860 251.212402,205.354935 
	C235.961838,217.329391 220.534439,229.078522 205.162628,240.898743 
	C202.404434,243.019684 199.538071,245.038544 197.029205,247.427536 
	C195.908524,248.494705 195.548813,250.361008 194.832062,252.215546 
	C189.950089,245.099411 191.161713,237.364822 198.476425,231.553558 
	C207.306442,224.538452 216.343323,217.784149 225.254929,210.870865 
	C226.810974,209.663742 228.190674,208.229263 229.899139,206.532791 
	C232.256973,205.627182 234.367508,205.088577 236.765656,204.376556 
z"/>
<path fill="#6C52F2" opacity="1.000000" stroke="none" 
	d="
M359.002716,117.553940 
	C359.907745,116.932388 360.668671,116.595413 361.743286,116.453262 
	C363.754028,120.376923 365.507355,117.578873 366.905609,116.518509 
	C386.611420,101.574471 406.254181,86.547386 425.943176,71.581131 
	C427.678406,70.262115 429.629791,69.227501 432.163177,67.630692 
	C432.163177,69.651253 432.163177,70.624397 432.163177,71.597534 
	C431.862518,72.034653 431.561859,72.471764 430.776550,73.161346 
	C429.850861,74.242844 429.409729,75.071854 428.968597,75.900864 
	C428.626343,76.587357 428.284088,77.273857 427.651306,78.045593 
	C424.997955,79.177475 422.322296,79.811935 420.318970,81.332298 
	C387.814667,106.000565 355.399017,130.785614 322.950287,155.527206 
	C320.576019,157.337555 318.183777,159.153976 315.627960,160.679581 
	C314.796143,161.176117 313.416412,160.754761 312.174011,160.476700 
	C313.591431,158.644424 315.122101,157.088684 316.821991,155.251038 
	C324.231934,148.553741 331.472656,142.138351 338.894806,135.455978 
	C345.670380,129.405502 352.264526,123.622002 359.002716,117.553940 
z"/>
<path fill="#6569F1" opacity="1.000000" stroke="none" 
	d="
M213.402618,259.582428 
	C214.447433,257.552826 215.582352,255.234512 217.415833,253.824646 
	C258.943298,221.891907 300.557251,190.071655 342.132507,158.201019 
	C361.402008,143.429474 380.603363,128.568909 399.905060,113.839729 
	C401.551636,112.583252 403.723663,112.015381 406.041870,111.136520 
	C405.486725,112.975563 404.541260,114.805695 403.302673,116.819267 
	C391.521851,125.101578 379.880249,132.992477 368.584656,141.351044 
	C353.896362,152.220200 339.463257,163.435211 324.955200,174.546921 
	C291.075684,200.495224 257.193024,226.439743 223.412323,252.516190 
	C221.488281,254.001419 220.467361,256.656616 219.019394,259.109894 
	C217.281143,259.540649 215.549622,259.628754 213.402618,259.582428 
z"/>
<path fill="#5F93E9" opacity="1.000000" stroke="none" 
	d="
M432.323914,330.911194 
	C430.311981,324.750946 428.374786,318.601593 427.050262,312.322998 
	C425.717773,306.006561 424.994751,299.561584 424.000305,292.770996 
	C430.689636,292.248169 437.383270,292.127228 444.532806,292.538361 
	C445.516296,296.806152 446.152985,300.530457 446.545654,304.280334 
	C447.118164,309.747559 447.515198,315.233215 447.987061,320.710999 
	C447.987061,320.710999 447.736450,321.067047 447.219849,321.116241 
	C446.132507,321.663116 445.561768,322.160797 444.991028,322.658508 
	C440.883118,325.394135 436.775238,328.129761 432.323914,330.911194 
z"/>
<path fill="#5F93E9" opacity="1.000000" stroke="none" 
	d="
M379.963165,99.845810 
	C378.801056,89.535934 377.635071,79.226501 376.480865,68.915741 
	C376.297516,67.277817 376.167145,65.633957 376.394623,63.502319 
	C379.185822,62.184669 381.594727,61.357536 384.003601,60.530411 
	C384.771057,60.362236 385.538483,60.194057 387.047180,60.299931 
	C390.270111,60.717621 392.770905,61.123596 395.229248,60.945179 
	C399.202271,60.656841 401.246460,62.412281 401.520020,66.213852 
	C401.830109,70.523048 401.921936,74.847946 401.998871,79.479912 
	C394.580475,86.477806 387.271820,93.161812 379.963165,99.845810 
z"/>
<path fill="#6B4FEE" opacity="1.000000" stroke="none" 
	d="
M379.748810,100.106522 
	C387.271820,93.161812 394.580475,86.477806 402.320129,79.368675 
	C405.069794,77.122940 407.538696,75.461899 409.676849,73.449455 
	C414.551331,68.861504 419.263702,64.101303 424.041931,59.411072 
	C431.869690,59.990173 434.944855,64.124344 432.457764,71.359375 
	C432.163177,70.624397 432.163177,69.651253 432.163177,67.630692 
	C429.629791,69.227501 427.678406,70.262115 425.943176,71.581131 
	C406.254181,86.547386 386.611420,101.574471 366.905609,116.518509 
	C365.507355,117.578873 363.754028,120.376923 362.029968,116.327347 
	C367.846771,110.793480 373.690613,105.580360 379.748810,100.106522 
z"/>
<path fill="#64E9B1" opacity="1.000000" stroke="none" 
	d="
M186.657333,180.180527 
	C188.305939,186.735611 189.856491,193.297409 190.831879,199.943604 
	C191.510208,204.565643 193.009140,207.732849 198.620544,207.690048 
	C190.812912,208.001465 182.678314,208.283875 174.548950,208.175186 
	C170.341965,208.118958 167.391739,205.656693 166.082703,201.632446 
	C164.686172,197.339172 165.912323,193.616592 169.586609,191.084778 
	C175.058823,187.314056 180.728256,183.829559 186.657333,180.180527 
z"/>
<path fill="#5B85E8" opacity="1.000000" stroke="none" 
	d="
M448.322449,320.664581 
	C447.515198,315.233215 447.118164,309.747559 446.545654,304.280334 
	C446.152985,300.530457 445.516296,296.806152 444.988342,292.652008 
	C450.113770,292.136536 455.239227,291.995697 460.365417,291.955231 
	C465.083954,291.917969 468.312622,294.236816 469.703735,298.684021 
	C471.108673,303.175537 469.552307,306.977051 465.776825,309.564087 
	C460.175568,313.402130 454.374115,316.947968 448.322449,320.664581 
z"/>
<path fill="#5B85E8" opacity="1.000000" stroke="none" 
	d="
M423.577240,59.316387 
	C419.263702,64.101303 414.551331,68.861504 409.676849,73.449455 
	C407.538696,75.461899 405.069794,77.122940 402.429871,79.054787 
	C401.921936,74.847946 401.830109,70.523048 401.520020,66.213852 
	C401.246460,62.412281 399.202271,60.656841 395.229248,60.945179 
	C392.770905,61.123596 390.270111,60.717621 387.436951,60.382278 
	C399.094513,59.867615 411.103546,59.544655 423.577240,59.316387 
z"/>
<path fill="#6D41EC" opacity="1.000000" stroke="none" 
	d="
M386.354248,242.046722 
	C381.238251,241.850693 376.463959,241.635834 371.349731,241.190826 
	C377.059753,240.948059 383.109711,240.935455 389.534149,241.057373 
	C388.837769,241.470551 387.766846,241.749222 386.354248,242.046722 
z"/>
<path fill="#635EE8" opacity="1.000000" stroke="none" 
	d="
M412.336304,101.954605 
	C411.853882,101.887131 411.630005,101.616226 411.210144,101.169235 
	C413.095490,98.732483 415.176819,96.471832 417.570618,94.104446 
	C416.120361,96.582199 414.357605,99.166687 412.336304,101.954605 
z"/>
<path fill="#5B85E8" opacity="1.000000" stroke="none" 
	d="
M383.613708,60.473396 
	C381.594727,61.357536 379.185822,62.184669 376.398376,63.076271 
	C375.186066,63.246304 374.352386,63.351868 373.306152,63.318115 
	C376.470337,62.257992 379.847046,61.337193 383.613708,60.473396 
z"/>
<path fill="#5B85E8" opacity="1.000000" stroke="none" 
	d="
M407.739044,293.426453 
	C407.015045,294.038452 406.148682,294.175781 405.082062,294.139679 
	C405.746796,293.031006 406.611755,292.095764 407.812317,291.108215 
	C407.964172,291.687866 407.780396,292.319824 407.739044,293.426453 
z"/>
<path fill="#5E7FF0" opacity="1.000000" stroke="none" 
	d="
M201.950211,431.284912 
	C202.331223,432.061005 202.536346,433.075531 202.648254,434.487335 
	C202.294785,433.764191 202.034546,432.643738 201.950211,431.284912 
z"/>
<path fill="#635EE8" opacity="1.000000" stroke="none" 
	d="
M424.243805,83.924637 
	C424.367249,83.286247 424.680634,82.442917 425.173035,81.415771 
	C425.045959,82.061203 424.739838,82.890450 424.243805,83.924637 
z"/>
<path fill="#6B4FEE" opacity="1.000000" stroke="none" 
	d="
M429.166565,75.691330 
	C429.409729,75.071854 429.850861,74.242844 430.521362,73.250443 
	C430.288635,73.885307 429.826569,74.683548 429.166565,75.691330 
z"/>
<path fill="#5B85E8" opacity="1.000000" stroke="none" 
	d="
M368.680176,64.573906 
	C368.300079,64.986649 367.616425,65.379974 366.615540,65.748070 
	C366.991058,65.333397 367.683838,64.943939 368.680176,64.573906 
z"/>
<path fill="#6271F0" opacity="1.000000" stroke="none" 
	d="
M250.582855,354.704041 
	C250.501694,355.289337 250.144302,356.027344 249.501129,356.912231 
	C249.579117,356.324982 249.942871,355.590851 250.582855,354.704041 
z"/>
<path fill="#6271F0" opacity="1.000000" stroke="none" 
	d="
M241.440964,368.773071 
	C241.382568,369.346100 241.056015,370.053619 240.442291,370.880859 
	C240.494339,370.302887 240.833572,369.605225 241.440964,368.773071 
z"/>
<path fill="#6271F0" opacity="1.000000" stroke="none" 
	d="
M239.571075,371.637238 
	C239.495270,372.230988 239.141113,372.977264 238.493958,373.861450 
	C238.564880,373.262848 238.928818,372.526306 239.571075,371.637238 
z"/>
<path fill="#6271F0" opacity="1.000000" stroke="none" 
	d="
M237.582306,374.697174 
	C237.508698,375.277588 237.161438,376.002777 236.529099,376.862976 
	C236.598877,376.279327 236.953766,375.560638 237.582306,374.697174 
z"/>
<path fill="#61B6D3" opacity="1.000000" stroke="none" 
	d="
M342.264404,388.847473 
	C342.553131,388.345337 343.145172,387.823853 344.055878,387.300049 
	C343.772278,387.807861 343.170013,388.317963 342.264404,388.847473 
z"/>
<path fill="#635EE8" opacity="1.000000" stroke="none" 
	d="
M420.427856,90.288895 
	C420.114166,89.897896 420.071289,89.357140 420.016083,88.410088 
	C420.394714,87.996521 420.785614,87.989265 421.469727,87.984909 
	C421.408173,88.704926 421.053406,89.422035 420.427856,90.288895 
z"/>
<path fill="#5E7FF0" opacity="1.000000" stroke="none" 
	d="
M217.542267,405.546631 
	C217.460770,406.161011 217.093185,406.937866 216.419388,407.856110 
	C216.494171,407.234680 216.875168,406.471924 217.542267,405.546631 
z"/>
<path fill="#5E7FF0" opacity="1.000000" stroke="none" 
	d="
M215.560913,408.594238 
	C215.480576,409.195831 215.119659,409.956726 214.459824,410.857971 
	C214.534042,410.250031 214.907181,409.501831 215.560913,408.594238 
z"/>
<path fill="#5E7FF0" opacity="1.000000" stroke="none" 
	d="
M213.571884,411.649994 
	C213.488312,412.246674 213.125320,413.002594 212.467865,413.904419 
	C212.546402,413.303284 212.919434,412.556274 213.571884,411.649994 
z"/>
<path fill="#5E7FF0" opacity="1.000000" stroke="none" 
	d="
M204.544754,425.552948 
	C204.480942,426.164154 204.132889,426.934967 203.487762,427.852142 
	C203.547318,427.236511 203.903915,426.474518 204.544754,425.552948 
z"/>
<path fill="#64E3B8" opacity="1.000000" stroke="none" 
	d="
M277.289948,430.503723 
	C277.012329,430.185608 277.013672,429.855164 277.008392,429.277618 
	C277.519806,429.046600 278.032806,429.062683 278.929993,429.099182 
	C278.734070,429.576843 278.153992,430.034119 277.289948,430.503723 
z"/>
<path fill="#64E3B8" opacity="1.000000" stroke="none" 
	d="
M267.314453,435.335693 
	C267.699463,434.935181 268.389404,434.563873 269.391998,434.189972 
	C269.009583,434.579895 268.314484,434.972412 267.314453,435.335693 
z"/>
<path fill="#64E3B8" opacity="1.000000" stroke="none" 
	d="
M258.249634,438.241364 
	C258.523926,437.945801 259.047241,437.731476 259.731781,437.624176 
	C259.428192,437.928314 258.963409,438.125427 258.249634,438.241364 
z"/>
<path fill="#635EE8" opacity="1.000000" stroke="none" 
	d="
M422.400177,87.237503 
	C422.469421,86.673813 422.802979,85.968147 423.412811,85.130600 
	C423.347534,85.697662 423.006012,86.396599 422.400177,87.237503 
z"/>
<path fill="#5B85E8" opacity="1.000000" stroke="none" 
	d="
M445.283691,322.633484 
	C445.561768,322.160797 446.132507,321.663116 447.003296,321.138397 
	C446.727661,321.610382 446.152039,322.109436 445.283691,322.633484 
z"/>
<path fill="#6B4FEE" opacity="1.000000" stroke="none" 
	d="
M274.580017,317.720947 
	C274.505676,318.292816 274.162140,319.008942 273.536407,319.857544 
	C273.606415,319.281738 273.958618,318.573456 274.580017,317.720947 
z"/>
<path fill="#635EE8" opacity="1.000000" stroke="none" 
	d="
M418.441895,93.383163 
	C418.517303,92.786743 418.867859,92.029655 419.515778,91.135590 
	C419.447754,91.739899 419.082397,92.481194 418.441895,93.383163 
z"/>
<path fill="#6B4FEE" opacity="1.000000" stroke="none" 
	d="
M278.556641,311.598450 
	C278.474243,312.205292 278.109711,312.977203 277.444122,313.894958 
	C277.520233,313.281708 277.897339,312.522583 278.556641,311.598450 
z"/>
<path fill="#61AFD8" opacity="1.000000" stroke="none" 
	d="
M304.691895,104.120789 
	C304.364563,104.647026 303.706421,105.207230 302.701660,105.795601 
	C303.023743,105.267433 303.692383,104.711090 304.691895,104.120789 
z"/>
<path fill="#62CBC7" opacity="1.000000" stroke="none" 
	d="
M242.664856,144.099197 
	C242.338486,144.632278 241.679626,145.196503 240.671097,145.783081 
	C240.991730,145.247055 241.662064,144.688705 242.664856,144.099197 
z"/>
<path fill="#63D8BC" opacity="1.000000" stroke="none" 
	d="
M237.746933,147.264816 
	C237.439240,147.757080 236.819992,148.274597 235.882584,148.826065 
	C236.188080,148.336700 236.811722,147.813385 237.746933,147.264816 
z"/>
<path fill="#63D8BC" opacity="1.000000" stroke="none" 
	d="
M234.676041,149.241547 
	C234.363846,149.741638 233.736221,150.266708 232.781982,150.823212 
	C233.090454,150.325287 233.725540,149.795914 234.676041,149.241547 
z"/>
<path fill="#5B85E8" opacity="1.000000" stroke="none" 
	d="
M414.754150,292.869659 
	C414.451965,293.132935 413.918549,293.288910 413.244629,293.315735 
	C413.577087,293.045135 414.049988,292.903748 414.754150,292.869659 
z"/>
<path fill="#635EE8" opacity="1.000000" stroke="none" 
	d="
M205.714737,258.068604 
	C206.003738,258.273926 206.020630,258.535950 206.045975,258.994690 
	C205.525864,259.207336 205.002457,259.222931 204.241058,259.113770 
	C204.481216,258.701202 204.959351,258.413422 205.714737,258.068604 
z"/>
<path fill="#63D8BC" opacity="1.000000" stroke="none" 
	d="
M231.669373,151.174469 
	C231.348145,151.689972 230.702255,152.235016 229.717606,152.810196 
	C230.034134,152.294891 230.689423,151.749451 231.669373,151.174469 
z"/>
<path fill="#63D8BC" opacity="1.000000" stroke="none" 
	d="
M203.678802,169.205917 
	C203.367798,169.718262 202.738953,170.254135 201.778900,170.810989 
	C202.085434,170.297791 202.723190,169.763611 203.678802,169.205917 
z"/>
<path fill="#64E9B1" opacity="1.000000" stroke="none" 
	d="
M195.762436,174.310303 
	C195.462021,174.790924 194.856659,175.295822 193.942169,175.837128 
	C194.241196,175.360550 194.849350,174.847565 195.762436,174.310303 
z"/>
<path fill="#64E9B1" opacity="1.000000" stroke="none" 
	d="
M192.687378,176.290497 
	C192.386200,176.777145 191.778580,177.287369 190.855972,177.829773 
	C191.154297,177.345978 191.767624,176.830017 192.687378,176.290497 
z"/>
<path fill="#64E9B1" opacity="1.000000" stroke="none" 
	d="
M189.677734,178.235870 
	C189.362030,178.735489 188.729538,179.263306 187.768372,179.823181 
	C188.080109,179.324860 188.720520,178.794479 189.677734,178.235870 
z"/>
<path fill="#60ADD9" opacity="1.000000" stroke="none" 
	d="
M347.712555,319.117523 
	C347.249817,319.700165 346.478699,320.331696 345.384521,320.994781 
	C345.842346,320.406342 346.623260,319.786377 347.712555,319.117523 
z"/>
</svg>